<?xml version="1.0" encoding="UTF-8" standalone="no"?>
<!DOCTYPE svg PUBLIC "-//W3C//DTD SVG 1.1//EN"
 "http://www.w3.org/Graphics/SVG/1.1/DTD/svg11.dtd">
<!-- Generated by graphviz version 2.40.1 (20161225.0304)
 -->
<!-- Title: D Pages: 1 -->
<svg width="222pt" height="440pt"
 viewBox="0.00 0.00 221.50 440.00" xmlns="http://www.w3.org/2000/svg" xmlns:xlink="http://www.w3.org/1999/xlink">
<g id="graph0" class="graph" transform="scale(1 1) rotate(0) translate(4 436)">
<title>D</title>
<polygon fill="#ffffff" stroke="transparent" points="-4,4 -4,-436 217.5,-436 217.5,4 -4,4"/>
<!-- operator -->
<g id="node1" class="node">
<title>operator</title>
<polygon fill="none" stroke="#000000" points="157,-432 86,-432 86,-394 157,-394 157,-432"/>
<text text-anchor="start" x="94" y="-416.8" font-family="Arial" font-size="14.00" fill="#000000">operator</text>
<text text-anchor="middle" x="121.5" y="-401.8" font-family="Arial" font-size="14.00" fill="#000000">(jenkins)</text>
</g>
<!-- jenkins -->
<g id="node2" class="node">
<title>jenkins</title>
<polygon fill="none" stroke="#000000" points="154,-358 89,-358 89,-305 154,-305 154,-358"/>
<text text-anchor="start" x="97" y="-342.8" font-family="Arial" font-size="14.00" fill="#000000">behave</text>
<text text-anchor="start" x="97" y="-327.8" font-family="Arial" font-size="14.00" fill="#000000">.steps</text>
<text text-anchor="middle" x="121.5" y="-312.8" font-family="Arial" font-size="14.00" fill="#000000">files</text>
</g>
<!-- operator&#45;&gt;jenkins -->
<g id="edge1" class="edge">
<title>operator&#45;&gt;jenkins</title>
<path fill="none" stroke="#000000" d="M121.5,-393.6856C121.5,-386.0394 121.5,-376.9857 121.5,-368.1871"/>
<polygon fill="#000000" stroke="#000000" points="125.0001,-368.0751 121.5,-358.0751 118.0001,-368.0752 125.0001,-368.0751"/>
</g>
<!-- python -->
<g id="node3" class="node">
<title>python</title>
<polygon fill="none" stroke="#000000" points="193.5,-269 49.5,-269 49.5,-216 193.5,-216 193.5,-269"/>
<text text-anchor="start" x="57.5" y="-253.8" font-family="Arial" font-size="14.00" fill="#000000">python,</text>
<text text-anchor="start" x="57.5" y="-238.8" font-family="Arial" font-size="14.00" fill="#000000">android_function.py</text>
<text text-anchor="middle" x="121.5" y="-223.8" font-family="Arial" font-size="14.00" fill="#000000">handy_logger.py</text>
</g>
<!-- jenkins&#45;&gt;python -->
<g id="edge2" class="edge">
<title>jenkins&#45;&gt;python</title>
<path fill="none" stroke="#000000" d="M121.5,-304.7971C121.5,-296.7887 121.5,-287.8597 121.5,-279.3198"/>
<polygon fill="#000000" stroke="#000000" points="125.0001,-279.1841 121.5,-269.1841 118.0001,-279.1841 125.0001,-279.1841"/>
</g>
<!-- appium -->
<g id="node4" class="node">
<title>appium</title>
<polygon fill="none" stroke="#000000" points="154,-180 89,-180 89,-144 154,-144 154,-180"/>
<text text-anchor="middle" x="121.5" y="-158.3" font-family="Arial" font-size="14.00" fill="#000000">appium</text>
</g>
<!-- python&#45;&gt;appium -->
<g id="edge3" class="edge">
<title>python&#45;&gt;appium</title>
<path fill="none" stroke="#000000" d="M121.5,-215.6947C121.5,-207.462 121.5,-198.3814 121.5,-190.0667"/>
<polygon fill="#000000" stroke="#000000" points="125.0001,-190.0657 121.5,-180.0658 118.0001,-190.0658 125.0001,-190.0657"/>
</g>
<!-- ADB -->
<g id="node5" class="node">
<title>ADB</title>
<polygon fill="none" stroke="#000000" points="121.5,-108 67.5,-108 67.5,-72 121.5,-72 121.5,-108"/>
<text text-anchor="middle" x="94.5" y="-86.3" font-family="Arial" font-size="14.00" fill="#000000">ADB</text>
</g>
<!-- appium&#45;&gt;ADB -->
<g id="edge4" class="edge">
<title>appium&#45;&gt;ADB</title>
<path fill="none" stroke="#000000" d="M114.6868,-143.8314C111.7356,-135.9617 108.2142,-126.5712 104.945,-117.8533"/>
<polygon fill="#000000" stroke="#000000" points="108.1934,-116.5476 101.405,-108.4133 101.6391,-119.0055 108.1934,-116.5476"/>
</g>
<!-- AVD -->
<g id="node7" class="node">
<title>AVD</title>
<polygon fill="none" stroke="#000000" points="213.5,-36 85.5,-36 85.5,0 213.5,0 213.5,-36"/>
<text text-anchor="middle" x="149.5" y="-14.3" font-family="Arial" font-size="14.00" fill="#000000">AVD/Genymotion</text>
</g>
<!-- appium&#45;&gt;AVD -->
<g id="edge7" class="edge">
<title>appium&#45;&gt;AVD</title>
<path fill="none" stroke="#000000" d="M125.0462,-143.7623C129.8431,-119.0928 138.4439,-74.8598 144.0608,-45.9731"/>
<polygon fill="#000000" stroke="#000000" points="147.5095,-46.5738 145.9826,-36.0896 140.6381,-45.2377 147.5095,-46.5738"/>
</g>
<!-- Android -->
<g id="node6" class="node">
<title>Android</title>
<polygon fill="none" stroke="#000000" points="67,-36 0,-36 0,0 67,0 67,-36"/>
<text text-anchor="middle" x="33.5" y="-14.3" font-family="Arial" font-size="14.00" fill="#000000">Android</text>
</g>
<!-- ADB&#45;&gt;Android -->
<g id="edge5" class="edge">
<title>ADB&#45;&gt;Android</title>
<path fill="none" stroke="#000000" d="M79.1071,-71.8314C72.0096,-63.454 63.452,-53.3531 55.676,-44.1749"/>
<polygon fill="#000000" stroke="#000000" points="58.2348,-41.7807 49.1001,-36.4133 52.8939,-46.3056 58.2348,-41.7807"/>
</g>
<!-- ADB&#45;&gt;AVD -->
<g id="edge6" class="edge">
<title>ADB&#45;&gt;AVD</title>
<path fill="none" stroke="#000000" d="M108.3788,-71.8314C114.7136,-63.5386 122.3384,-53.557 129.2926,-44.4533"/>
<polygon fill="#000000" stroke="#000000" points="132.1452,-46.4847 135.4343,-36.4133 126.5825,-42.2353 132.1452,-46.4847"/>
</g>
</g>
</svg>
