<?xml version="1.0" encoding="UTF-8" standalone="no"?>
<!DOCTYPE svg PUBLIC "-//W3C//DTD SVG 1.1//EN"
 "http://www.w3.org/Graphics/SVG/1.1/DTD/svg11.dtd">
<!-- Generated by graphviz version 2.40.1 (20161225.0304)
 -->
<!-- Title: D Pages: 1 -->
<svg width="398pt" height="152pt"
 viewBox="0.00 0.00 398.00 152.00" xmlns="http://www.w3.org/2000/svg" xmlns:xlink="http://www.w3.org/1999/xlink">
<g id="graph0" class="graph" transform="scale(1 1) rotate(0) translate(4 148)">
<title>D</title>
<polygon fill="#ffffff" stroke="transparent" points="-4,4 -4,-148 394,-148 394,4 -4,4"/>
<!-- start -->
<g id="node1" class="node">
<title>start</title>
<polygon fill="none" stroke="#000000" points="54,-90 0,-90 0,-54 54,-54 54,-90"/>
<text text-anchor="middle" x="27" y="-68.3" font-family="Arial" font-size="14.00" fill="#000000">start</text>
</g>
<!-- pass -->
<g id="node3" class="node">
<title>pass</title>
<polygon fill="none" stroke="#000000" points="144,-144 90,-144 90,-108 144,-108 144,-144"/>
<text text-anchor="middle" x="117" y="-122.3" font-family="Arial" font-size="14.00" fill="#000000">pass</text>
</g>
<!-- start&#45;&gt;pass -->
<g id="edge1" class="edge">
<title>start&#45;&gt;pass</title>
<path fill="none" stroke="#000000" d="M54.003,-88.2018C62.4686,-93.2812 71.9516,-98.971 80.9389,-104.3634"/>
<polygon fill="#000000" stroke="#000000" points="79.3293,-107.4792 89.705,-109.623 82.9308,-101.4768 79.3293,-107.4792"/>
</g>
<!-- fail -->
<g id="node4" class="node">
<title>fail</title>
<polygon fill="none" stroke="#000000" points="144,-90 90,-90 90,-54 144,-54 144,-90"/>
<text text-anchor="middle" x="117" y="-68.3" font-family="Arial" font-size="14.00" fill="#000000">fail</text>
</g>
<!-- start&#45;&gt;fail -->
<g id="edge2" class="edge">
<title>start&#45;&gt;fail</title>
<path fill="none" stroke="#000000" d="M54.003,-72C62.0277,-72 70.9665,-72 79.5309,-72"/>
<polygon fill="#000000" stroke="#000000" points="79.7051,-75.5001 89.705,-72 79.705,-68.5001 79.7051,-75.5001"/>
</g>
<!-- wait -->
<g id="node5" class="node">
<title>wait</title>
<polygon fill="none" stroke="#000000" points="144,-36 90,-36 90,0 144,0 144,-36"/>
<text text-anchor="middle" x="117" y="-14.3" font-family="Arial" font-size="14.00" fill="#000000">wait</text>
</g>
<!-- start&#45;&gt;wait -->
<g id="edge3" class="edge">
<title>start&#45;&gt;wait</title>
<path fill="none" stroke="#000000" d="M54.003,-55.7982C62.4686,-50.7188 71.9516,-45.029 80.9389,-39.6366"/>
<polygon fill="#000000" stroke="#000000" points="82.9308,-42.5232 89.705,-34.377 79.3293,-36.5208 82.9308,-42.5232"/>
</g>
<!-- end -->
<g id="node2" class="node">
<title>end</title>
<polygon fill="none" stroke="#000000" points="390,-90 336,-90 336,-54 390,-54 390,-90"/>
<text text-anchor="middle" x="363" y="-68.3" font-family="Arial" font-size="14.00" fill="#000000">end</text>
</g>
<!-- test_purpose -->
<g id="node6" class="node">
<title>test_purpose</title>
<polygon fill="none" stroke="#000000" points="300,-90 180,-90 180,-54 300,-54 300,-90"/>
<text text-anchor="middle" x="240" y="-68.3" font-family="Arial" font-size="14.00" fill="#000000">my test purpose</text>
</g>
<!-- pass&#45;&gt;test_purpose -->
<g id="edge4" class="edge">
<title>pass&#45;&gt;test_purpose</title>
<path fill="none" stroke="#000000" d="M144.2977,-114.0156C157.5437,-108.2003 173.8935,-101.0224 189.308,-94.255"/>
<polygon fill="#000000" stroke="#000000" points="190.9993,-97.335 198.7488,-90.1103 188.1853,-90.9255 190.9993,-97.335"/>
</g>
<!-- fail&#45;&gt;test_purpose -->
<g id="edge5" class="edge">
<title>fail&#45;&gt;test_purpose</title>
<path fill="none" stroke="#000000" d="M144.2977,-72C151.9596,-72 160.6601,-72 169.6173,-72"/>
<polygon fill="#000000" stroke="#000000" points="169.7978,-75.5001 179.7977,-72 169.7977,-68.5001 169.7978,-75.5001"/>
</g>
<!-- wait&#45;&gt;test_purpose -->
<g id="edge6" class="edge">
<title>wait&#45;&gt;test_purpose</title>
<path fill="none" stroke="#000000" d="M144.2977,-29.9844C157.5437,-35.7997 173.8935,-42.9776 189.308,-49.745"/>
<polygon fill="#000000" stroke="#000000" points="188.1853,-53.0745 198.7488,-53.8897 190.9993,-46.665 188.1853,-53.0745"/>
</g>
<!-- test_purpose&#45;&gt;end -->
<g id="edge7" class="edge">
<title>test_purpose&#45;&gt;end</title>
<path fill="none" stroke="#000000" d="M300.0587,-72C308.7934,-72 317.567,-72 325.674,-72"/>
<polygon fill="#000000" stroke="#000000" points="325.8882,-75.5001 335.8882,-72 325.8882,-68.5001 325.8882,-75.5001"/>
</g>
</g>
</svg>
